<?xml version="1.0" standalone="no"?>
<!DOCTYPE svg PUBLIC "-//W3C//DTD SVG 20010904//EN"
 "http://www.w3.org/TR/2001/REC-SVG-20010904/DTD/svg10.dtd">
<svg version="1.0" xmlns="http://www.w3.org/2000/svg"
 width="700.000000pt" height="700.000000pt" viewBox="0 0 700.000000 700.000000"
 preserveAspectRatio="xMidYMid meet">
<metadata>
Created by potrace 1.14, written by Peter Selinger 2001-2017
</metadata>
<g transform="translate(0.000000,700.000000) scale(0.100000,-0.100000)"
fill="#000000" stroke="none">
<path d="M3133 6975 c-669 -76 -1251 -313 -1793 -731 -149 -114 -470 -435
-584 -584 -402 -522 -630 -1065 -721 -1715 -22 -156 -31 -550 -16 -727 87
-1025 624 -1971 1457 -2566 301 -215 691 -404 1039 -505 565 -164 1118 -188
1690 -72 1072 218 1976 922 2451 1910 163 340 265 685 321 1085 22 159 25 651
5 810 -79 623 -284 1162 -625 1640 -171 239 -446 532 -662 704 -486 386 -1063
638 -1678 732 -150 23 -210 27 -467 30 -207 2 -332 -1 -417 -11z m3369 -2102
c129 -273 223 -592 274 -933 21 -144 30 -573 15 -736 -62 -660 -307 -1263
-722 -1779 -639 -795 -1634 -1253 -2654 -1222 -508 16 -947 128 -1400 357
-451 228 -844 557 -1153 967 -61 80 -184 265 -179 269 1 1 438 244 971 539
533 295 1013 561 1066 591 53 30 99 54 102 54 3 0 43 -37 89 -82 209 -205 484
-287 766 -229 331 69 588 328 660 666 20 96 12 294 -16 390 -19 66 -20 71 -3
83 18 14 2112 1179 2123 1181 3 1 31 -52 61 -116z m-2842 -749 c113 -26 206
-79 296 -169 132 -131 194 -276 194 -456 0 -310 -207 -566 -514 -634 -213 -47
-467 35 -611 198 -49 54 -117 178 -141 256 -25 78 -29 227 -10 315 52 232 230
421 458 487 80 22 239 24 328 3z"/>
</g>
</svg>
